<?xml version="1.0" encoding="UTF-8"?>
<svg xmlns="http://www.w3.org/2000/svg" xmlns:xlink="http://www.w3.org/1999/xlink" width="16px" height="16px" viewBox="0 0 16 16" version="1.1">
<defs>
<linearGradient id="linear0" gradientUnits="userSpaceOnUse" x1="0" y1="0" x2="128" y2="128" gradientTransform="matrix(0.125,0,0,0.125,0,0)">
<stop offset="0" style="stop-color:rgb(40%,49.411765%,91.764706%);stop-opacity:1;"/>
<stop offset="1" style="stop-color:rgb(46.27451%,29.411765%,63.529412%);stop-opacity:1;"/>
</linearGradient>
</defs>
<g id="surface1">
<path style=" stroke:none;fill-rule:nonzero;fill:url(#linear0);" d="M 3 0 L 13 0 C 14.65625 0 16 1.34375 16 3 L 16 13 C 16 14.65625 14.65625 16 13 16 L 3 16 C 1.34375 16 0 14.65625 0 13 L 0 3 C 0 1.34375 1.34375 0 3 0 Z M 3 0 "/>
<path style="fill:none;stroke-width:8;stroke-linecap:round;stroke-linejoin:round;stroke:rgb(100%,100%,100%);stroke-opacity:1;stroke-miterlimit:4;" d="M 84 52 L 64 72 L 44 52 " transform="matrix(0.125,0,0,0.125,0,0)"/>
<path style="fill:none;stroke-width:8;stroke-linecap:round;stroke-linejoin:miter;stroke:rgb(100%,100%,100%);stroke-opacity:1;stroke-miterlimit:4;" d="M 64 40 L 64 72 " transform="matrix(0.125,0,0,0.125,0,0)"/>
<path style="fill:none;stroke-width:8;stroke-linecap:round;stroke-linejoin:miter;stroke:rgb(100%,100%,100%);stroke-opacity:1;stroke-miterlimit:4;" d="M 36 76 L 36 88 C 36 91.3125 38.6875 94 42 94 L 86 94 C 89.3125 94 92 91.3125 92 88 L 92 76 " transform="matrix(0.125,0,0,0.125,0,0)"/>
</g>
</svg>
